<?xml version="1.0" encoding="UTF-8" standalone="no"?>
<!DOCTYPE svg PUBLIC "-//W3C//DTD SVG 1.1//EN"
 "http://www.w3.org/Graphics/SVG/1.1/DTD/svg11.dtd">
<!-- Generated by graphviz version 2.40.1 (20161225.0304)
 -->
<!-- Title: BinaryHeap Pages: 1 -->
<svg width="206pt" height="263pt"
 viewBox="0.00 0.00 206.00 263.00" xmlns="http://www.w3.org/2000/svg" xmlns:xlink="http://www.w3.org/1999/xlink">
<g id="graph0" class="graph" transform="scale(1 1) rotate(0) translate(4 259)">
<title>BinaryHeap</title>
<polygon fill="#ffffff" stroke="transparent" points="-4,4 -4,-259 202,-259 202,4 -4,4"/>
<!-- 3 -->
<g id="node1" class="node">
<title>3</title>
<ellipse fill="none" stroke="#000000" cx="99" cy="-199.5" rx="27" ry="18"/>
<text text-anchor="middle" x="99" y="-195.3" font-family="Times,serif" font-size="14.00" fill="#000000">3</text>
</g>
<!-- 7 -->
<g id="node2" class="node">
<title>7</title>
<ellipse fill="none" stroke="#000000" cx="63" cy="-90" rx="27" ry="18"/>
<text text-anchor="middle" x="63" y="-85.8" font-family="Times,serif" font-size="14.00" fill="#000000">7</text>
</g>
<!-- 3&#45;&gt;7 -->
<g id="edge1" class="edge">
<title>3&#45;&gt;7</title>
<path fill="none" stroke="#000000" d="M93.216,-181.9069C87.503,-164.5298 78.6813,-137.6973 72.042,-117.5028"/>
<polygon fill="#000000" stroke="#000000" points="75.3375,-116.3198 68.8893,-107.9132 68.6876,-118.5061 75.3375,-116.3198"/>
</g>
<!-- 11 -->
<g id="node3" class="node">
<title>11</title>
<ellipse fill="none" stroke="#000000" cx="135" cy="-90" rx="27" ry="18"/>
<text text-anchor="middle" x="135" y="-85.8" font-family="Times,serif" font-size="14.00" fill="#000000">11</text>
</g>
<!-- 3&#45;&gt;11 -->
<g id="edge2" class="edge">
<title>3&#45;&gt;11</title>
<path fill="none" stroke="#000000" d="M104.784,-181.9069C110.497,-164.5298 119.3187,-137.6973 125.958,-117.5028"/>
<polygon fill="#000000" stroke="#000000" points="129.3124,-118.5061 129.1107,-107.9132 122.6625,-116.3198 129.3124,-118.5061"/>
</g>
<!-- 13 -->
<g id="node4" class="node">
<title>13</title>
<ellipse fill="none" stroke="#000000" cx="27" cy="-18" rx="27" ry="18"/>
<text text-anchor="middle" x="27" y="-13.8" font-family="Times,serif" font-size="14.00" fill="#000000">13</text>
</g>
<!-- 7&#45;&gt;13 -->
<g id="edge3" class="edge">
<title>7&#45;&gt;13</title>
<path fill="none" stroke="#000000" d="M54.2854,-72.5708C50.0403,-64.0807 44.8464,-53.6929 40.1337,-44.2674"/>
<polygon fill="#000000" stroke="#000000" points="43.237,-42.6477 35.6343,-35.2687 36.976,-45.7782 43.237,-42.6477"/>
</g>
<!-- 14 -->
<g id="node5" class="node">
<title>14</title>
<ellipse fill="none" stroke="#000000" cx="99" cy="-18" rx="27" ry="18"/>
<text text-anchor="middle" x="99" y="-13.8" font-family="Times,serif" font-size="14.00" fill="#000000">14</text>
</g>
<!-- 7&#45;&gt;14 -->
<g id="edge4" class="edge">
<title>7&#45;&gt;14</title>
<path fill="none" stroke="#000000" d="M71.7146,-72.5708C75.9597,-64.0807 81.1536,-53.6929 85.8663,-44.2674"/>
<polygon fill="#000000" stroke="#000000" points="89.024,-45.7782 90.3657,-35.2687 82.763,-42.6477 89.024,-45.7782"/>
</g>
<!-- Array -->
<g id="node6" class="node">
<title>Array</title>
<polygon fill="none" stroke="#000000" points="144,-144.5 144,-254.5 198,-254.5 198,-144.5 144,-144.5"/>
<text text-anchor="middle" x="171" y="-239.3" font-family="Times,serif" font-size="14.00" fill="#000000">3</text>
<polyline fill="none" stroke="#000000" points="144,-232.5 198,-232.5 "/>
<text text-anchor="middle" x="171" y="-217.3" font-family="Times,serif" font-size="14.00" fill="#000000">7</text>
<polyline fill="none" stroke="#000000" points="144,-210.5 198,-210.5 "/>
<text text-anchor="middle" x="171" y="-195.3" font-family="Times,serif" font-size="14.00" fill="#000000">11</text>
<polyline fill="none" stroke="#000000" points="144,-188.5 198,-188.5 "/>
<text text-anchor="middle" x="171" y="-173.3" font-family="Times,serif" font-size="14.00" fill="#000000">13</text>
<polyline fill="none" stroke="#000000" points="144,-166.5 198,-166.5 "/>
<text text-anchor="middle" x="171" y="-151.3" font-family="Times,serif" font-size="14.00" fill="#000000">14</text>
</g>
</g>
</svg>
