<?xml version="1.0" encoding="UTF-8" standalone="no"?>
<!DOCTYPE svg PUBLIC "-//W3C//DTD SVG 1.1//EN"
 "http://www.w3.org/Graphics/SVG/1.1/DTD/svg11.dtd">
<!-- Generated by graphviz version 2.40.1 (20161225.0304)
 -->
<!-- Title: AStar Pages: 1 -->
<svg width="278pt" height="216pt"
 viewBox="0.00 0.00 278.00 216.00" xmlns="http://www.w3.org/2000/svg" xmlns:xlink="http://www.w3.org/1999/xlink">
<g id="graph0" class="graph" transform="scale(1 1) rotate(0) translate(4 212)">
<title>AStar</title>
<polygon fill="#ffffff" stroke="transparent" points="-4,4 -4,-212 274,-212 274,4 -4,4"/>
<!-- S -->
<g id="node1" class="node">
<title>S</title>
<ellipse fill="none" stroke="#000000" cx="135" cy="-190" rx="27" ry="18"/>
<text text-anchor="middle" x="135" y="-185.8" font-family="Times,serif" font-size="14.00" fill="#000000">S</text>
</g>
<!-- A -->
<g id="node2" class="node">
<title>A</title>
<ellipse fill="none" stroke="#000000" cx="27" cy="-104" rx="27" ry="18"/>
<text text-anchor="middle" x="27" y="-99.8" font-family="Times,serif" font-size="14.00" fill="#000000">A</text>
</g>
<!-- S&#45;&gt;A -->
<g id="edge1" class="edge">
<title>S&#45;&gt;A</title>
<path fill="none" stroke="#000000" d="M117.6479,-176.1826C100.0393,-162.1609 72.5868,-140.3006 52.504,-124.3087"/>
<polygon fill="#000000" stroke="#000000" points="54.6709,-121.5601 44.6678,-118.0688 50.3104,-127.0361 54.6709,-121.5601"/>
<text text-anchor="middle" x="95" y="-142.8" font-family="Times,serif" font-size="14.00" fill="#000000">10</text>
</g>
<!-- B -->
<g id="node3" class="node">
<title>B</title>
<ellipse fill="none" stroke="#000000" cx="99" cy="-104" rx="27" ry="18"/>
<text text-anchor="middle" x="99" y="-99.8" font-family="Times,serif" font-size="14.00" fill="#000000">B</text>
</g>
<!-- S&#45;&gt;B -->
<g id="edge2" class="edge">
<title>S&#45;&gt;B</title>
<path fill="none" stroke="#000000" d="M127.7149,-172.5966C122.6889,-160.5902 115.9107,-144.3977 110.2018,-130.76"/>
<polygon fill="#000000" stroke="#000000" points="113.3643,-129.2504 106.2743,-121.3775 106.9072,-131.9534 113.3643,-129.2504"/>
<text text-anchor="middle" x="127" y="-142.8" font-family="Times,serif" font-size="14.00" fill="#000000">10</text>
</g>
<!-- C -->
<g id="node4" class="node">
<title>C</title>
<ellipse fill="none" stroke="#000000" cx="171" cy="-104" rx="27" ry="18"/>
<text text-anchor="middle" x="171" y="-99.8" font-family="Times,serif" font-size="14.00" fill="#000000">C</text>
</g>
<!-- S&#45;&gt;C -->
<g id="edge3" class="edge">
<title>S&#45;&gt;C</title>
<path fill="none" stroke="#000000" d="M142.2851,-172.5966C147.3111,-160.5902 154.0893,-144.3977 159.7982,-130.76"/>
<polygon fill="#000000" stroke="#000000" points="163.0928,-131.9534 163.7257,-121.3775 156.6357,-129.2504 163.0928,-131.9534"/>
<text text-anchor="middle" x="162" y="-142.8" font-family="Times,serif" font-size="14.00" fill="#000000">10</text>
</g>
<!-- D -->
<g id="node5" class="node">
<title>D</title>
<ellipse fill="none" stroke="#000000" cx="243" cy="-104" rx="27" ry="18"/>
<text text-anchor="middle" x="243" y="-99.8" font-family="Times,serif" font-size="14.00" fill="#000000">D</text>
</g>
<!-- S&#45;&gt;D -->
<g id="edge4" class="edge">
<title>S&#45;&gt;D</title>
<path fill="none" stroke="#000000" d="M152.3521,-176.1826C169.9607,-162.1609 197.4132,-140.3006 217.496,-124.3087"/>
<polygon fill="#000000" stroke="#000000" points="219.6896,-127.0361 225.3322,-118.0688 215.3291,-121.5601 219.6896,-127.0361"/>
<text text-anchor="middle" x="202" y="-142.8" font-family="Times,serif" font-size="14.00" fill="#000000">10</text>
</g>
<!-- E -->
<g id="node6" class="node">
<title>E</title>
<ellipse fill="none" stroke="#000000" cx="99" cy="-18" rx="27" ry="18"/>
<text text-anchor="middle" x="99" y="-13.8" font-family="Times,serif" font-size="14.00" fill="#000000">E</text>
</g>
<!-- A&#45;&gt;E -->
<g id="edge5" class="edge">
<title>A&#45;&gt;E</title>
<path fill="none" stroke="#000000" stroke-dasharray="5,2" d="M40.2059,-88.2263C51.0987,-75.2155 66.7212,-56.5553 79.1247,-41.7399"/>
<polygon fill="#000000" stroke="#000000" points="81.8982,-43.8794 85.634,-33.965 76.5309,-39.3858 81.8982,-43.8794"/>
<text text-anchor="middle" x="75" y="-56.8" font-family="Times,serif" font-size="14.00" fill="#000000">15</text>
</g>
<!-- B&#45;&gt;E -->
<g id="edge6" class="edge">
<title>B&#45;&gt;E</title>
<path fill="none" stroke="#000000" stroke-dasharray="5,2" d="M99,-85.7616C99,-74.3597 99,-59.4342 99,-46.494"/>
<polygon fill="#000000" stroke="#000000" points="102.5001,-46.2121 99,-36.2121 95.5001,-46.2121 102.5001,-46.2121"/>
<text text-anchor="middle" x="106" y="-56.8" font-family="Times,serif" font-size="14.00" fill="#000000">10</text>
</g>
<!-- C&#45;&gt;E -->
<g id="edge7" class="edge">
<title>C&#45;&gt;E</title>
<path fill="none" stroke="#000000" stroke-dasharray="5,2" d="M157.7941,-88.2263C146.9013,-75.2155 131.2788,-56.5553 118.8753,-41.7399"/>
<polygon fill="#000000" stroke="#000000" points="121.4691,-39.3858 112.366,-33.965 116.1018,-43.8794 121.4691,-39.3858"/>
<text text-anchor="middle" x="146" y="-56.8" font-family="Times,serif" font-size="14.00" fill="#000000">20</text>
</g>
</g>
</svg>
